<svg xmlns="http://www.w3.org/2000/svg" xmlns:xlink="http://www.w3.org/1999/xlink" width="48" height="48" viewBox="0 0 48 48">
	<defs>
	  <rect id="einstein_icon-a" width="48" height="48"/>
	  <linearGradient id="einstein_icon-c" x1="87.177%" x2="-3.526%" y1="53.526%" y2="20.362%">
		<stop offset="0%" stop-color="#715034"/>
		<stop offset="100%" stop-color="#996733"/>
	  </linearGradient>
	  <linearGradient id="einstein_icon-d" x1=".725%" x2="99.848%" y1="50%" y2="50%">
		<stop offset="0%" stop-color="#715035"/>
		<stop offset="100%" stop-color="#986733"/>
	  </linearGradient>
	</defs>
	<g fill="none" fill-rule="evenodd">
	  <rect width="48" height="48" fill="#032E61" fill-rule="nonzero"/>
	  <mask id="einstein_icon-b" fill="#fff">
		<use xlink:href="#einstein_icon-a"/>
	  </mask>
	  <g mask="url(#einstein_icon-b)">
		<g transform="translate(5 1)">
		  <path fill="#FDD5A6" fill-rule="nonzero" d="M11,35.1 C9.8,33.5 8.9,34.3 8.7,34.1 C8.3,33.8 7.9,33.4 7.2,32.7 C6.7,32.3 5.5,31.4 5.4,32.3 C5.3,33.3 6.9,34.5 6.7,34.8 C6.7,34.8 6.7,34.8 6.7,34.9 C6.5,34.9 6.1,34.9 6,35.2 L5.9,35.7 C5.8,35.9 5.9,36.1 6,36.2 C6.1,36.3 6.1,36.4 6,36.4 C5.9,36.5 5.8,36.6 5.8,36.8 L5.8,37.4 C5.8,37.6 5.9,37.8 6.1,37.9 C6.2,38 6.2,38.1 6.2,38.2 C6.2,38.3 6.1,38.4 6.1,38.5 C6.1,38.6 6.1,38.8 6.3,39.1 C6.5,39.5 8.1,41 9.6,40.9 C10.6,40.9 11.5,39.9 12,37.8 C12,37.8 12.2,37.4 12.2,36.9 C12.3,36.5 11.4,35.6 11,35.1 Z"/>
		  <path fill="#FBBF88" fill-rule="nonzero" d="M8.7 34.2C8.3 33.9 7.9 33.5 7.2 32.8 6.7 32.4 5.5 31.5 5.4 32.4 5.3 33.4 6.9 34.6 6.7 34.9 6.7 34.9 6.7 34.9 6.7 35L7.3 35C7.3 35 7.3 34.9 7.3 34.8 7.5 34.7 7.8 34.4 8.7 34.2zM9 36.1C9 36.1 9.4 36.8 9.1 38.1 9 38.6 8.8 39.1 8.4 39.3 7.9 39.6 7.1 39.5 6.4 39.5 6.7 40.1 8.7 41.1 9.6 41.4 12.3 42.2 11.5 39.5 11.5 39.5 11.5 39.5 10.1 39.2 10 38 9.7 35.6 9.3 36.1 9 36.1z"/>
		  <path fill="url(#einstein_icon-c)" fill-rule="nonzero" d="M15,36.1 C13.9,36.9 12.1,36.5 12.1,36.5 C12.1,36.5 12.6,39.5 8.1,40.9 C8.1,40.9 8,41.2 8.2,41.3 C8.4,41.5 11.6,42.6 12.4,42.7 L13.7,37.8 C13.8,37.9 15.7,35.8 15,36.1 Z"/>
		  <path fill="#6F4C2E" fill-rule="nonzero" d="M13.7,39.8 L12.4,42.8 C11.6,42.7 8.3,41.5 8.2,41.4 C8,41.2 8.1,41 8.1,41 C8.9,40.7 9.5,40.4 10.1,40.1 C10.1,40.1 12,40.9 13.7,39.8 Z"/>
		  <g transform="translate(16 32)">
			<path fill="#FDD5A6" fill-rule="nonzero" d="M6.8,0.3 L6.9,1.7 C6.9,1.7 5.6,3.9 2.9,3.7 C1.8,3.6 0.4,3.2 0.3,2.7 C0.1,1.8 0.3,1.3 0.3,1.3 L6.8,0.3 Z"/>
			<path fill="#CDAD87" fill-rule="nonzero" d="M6.4,2.4 C6.4,2.4 3.7,3.3 0.1,2.4 L0.2,1.5 L6.6,0.6 L6.4,2.4 Z"/>
		  </g>
		  <path fill="#163860" fill-rule="nonzero" d="M23.3,35.5 C23.3,35.5 23,46.8 22.6,48.7 C22.6,48.7 15.7,49.8 12.3,47.8 C12.3,47.8 11.7,42 15.8,36.7 L23.3,35.5 Z"/>
		  <path fill="#0C233B" fill-rule="nonzero" d="M15.8,37.2 C15.8,37.2 12.9,42.3 12.7,48.1 L12.2,47.9 L12.7,42 L14.5,38.3 L15.5,36.9 L15.8,37.2 Z"/>
		  <g transform="translate(15 37)">
			<path fill="#0C233B" fill-rule="nonzero" d="M5.8 1.3L5.8 1.3C5.8 1.3 5.8 1.4 5.8 1.3L5.8 1.3 5.8 1.3C5.8 1.4 5.8 1.4 5.8 1.3L5.8 1.3 5.8 1.3zM5.6 1.4C5.6 1.4 5.6 1.5 5.6 1.4L5.6 1.4 5.6 1.4C5.6 1.5 5.6 1.5 5.6 1.4L5.6 1.4 5.6 1.4 5.6 1.4zM5.4 1.6L5.4 1.6 5.4 1.6C5.4 1.6 5.5 1.6 5.4 1.6L5.5 1.5 5.4 1.6C5.5 1.6 5.4 1.6 5.4 1.6zM3.4 3.6L3.4 3.6C3.3 3.6 3.3 3.7 3.4 3.6L3.4 3.6 3.4 3.6C3.3 3.7 3.4 3.7 3.4 3.6L3.4 3.6 3.4 3.6zM4 3L4 3C3.9 3 3.9 3.1 4 3L4 3 4 3C3.9 3.1 3.9 3.1 4 3L4 3 4 3zM3.7 3.3C3.6 3.3 3.6 3.4 3.7 3.3L3.7 3.3 3.7 3.3C3.6 3.4 3.7 3.4 3.7 3.3L3.7 3.3 3.7 3.3zM2.9 4.1L2.9 4.1 2.9 4.1 2.9 4.1 2.9 4.1C2.9 4.2 2.9 4.1 2.9 4.1L2.9 4.1 2.9 4.1zM2.8 4.2C2.8 4.3 2.7 4.3 2.8 4.2L2.8 4.2 2.8 4.2C2.8 4.3 2.8 4.3 2.8 4.2L2.8 4.2 2.8 4.2zM3.1 3.9L3.1 3.9C3.1 4 3 4 3.1 3.9L3.1 3.9 3.1 3.9C3.1 4 3.1 4 3.1 3.9L3.1 3.9 3.1 3.9zM4.6 2.3L4.6 2.3 4.6 2.3C4.7 2.3 4.7 2.3 4.6 2.3L4.6 2.3 4.6 2.3C4.7 2.3 4.6 2.3 4.6 2.3zM4.8 2.1C4.8 2.1 4.8 2.2 4.8 2.1L4.8 2.1 4.8 2.1C4.8 2.2 4.8 2.2 4.8 2.1L4.8 2.1 4.8 2.1 4.8 2.1zM4.9 2L4.9 2 4.9 2C5 2 5 2 4.9 2L4.9 2 4.9 2C5 2 5 2 4.9 2zM5.3 1.7L5.3 1.7 5.3 1.7 5.3 1.7C5.3 1.8 5.3 1.7 5.3 1.7L5.3 1.7 5.3 1.7 5.3 1.7zM4.5 2.4C4.5 2.4 4.5 2.5 4.5 2.4L4.5 2.4 4.5 2.4C4.5 2.5 4.5 2.5 4.5 2.4L4.5 2.4 4.5 2.4 4.5 2.4zM4.4 2.6L4.4 2.6C4.4 2.6 4.3 2.6 4.4 2.6L4.4 2.6 4.4 2.6 4.4 2.6 4.4 2.6 4.4 2.6zM4.2 2.7C4.2 2.7 4.2 2.8 4.2 2.7L4.2 2.7 4.2 2.7C4.2 2.8 4.2 2.8 4.2 2.7L4.2 2.7 4.2 2.7zM2.7 4.4L2.7 4.4C2.6 4.4 2.6 4.4 2.7 4.4L2.7 4.4 2.7 4.4 2.7 4.4 2.7 4.4C2.6 4.4 2.6 4.4 2.7 4.4L2.7 4.4 2.7 4.4C2.6 4.4 2.6 4.4 2.7 4.4L2.7 4.4 2.7 4.4 2.7 4.4C2.6 4.4 2.6 4.4 2.7 4.4L2.7 4.4 2.7 4.4z"/>
			<polygon fill="#0C233B" fill-rule="nonzero" points="2.6 4.3 2.6 4.2 2.6 4.2 2.6 4.2"/>
			<polygon fill="#0C233B" fill-rule="nonzero" points="2.6 4.1 2.6 3.9 2.6 3.9 2.6 3.9"/>
			<polygon fill="#0C233B" fill-rule="nonzero" points="2.6 3.8 2.6 3.8 2.6 3.8 2.6 3.8 2.6 3.8 2.6 3.9"/>
			<path fill="#0C233B" fill-rule="nonzero" d="M.9.4L.9.4.9.4C.9.4.9.5.9.4L.9.4.9.4.9.4zM.9.8L.9.8.9.8.9.8.9.8.9.8C1 .9 1 .8.9.8zM1.1 1.6L1.1 1.6C1.1 1.7 1.1 1.7 1.1 1.6L1.1 1.6 1.1 1.6C1.2 1.7 1.2 1.7 1.1 1.6L1.1 1.6zM1.1 1.4L1.1 1.4C1.1 1.5 1.1 1.5 1.1 1.4L1.1 1.4 1.1 1.4 1.1 1.4 1.1 1.4zM1 1.2L1 1.2 1 1.2 1 1.2 1 1.2 1 1.2 1 1.2C1.1 1.3 1 1.2 1 1.2zM1.2 1.8L1.2 1.8C1.2 1.9 1.2 1.9 1.2 1.8L1.2 1.8 1.2 1.8C1.2 1.9 1.2 1.9 1.2 1.8L1.2 1.8zM1.2 2L1.2 2C1.2 2.1 1.2 2.1 1.2 2L1.2 2 1.2 2C1.3 2.1 1.3 2.1 1.2 2L1.2 2zM1.8 3.4L1.8 3.4 1.8 3.4 1.8 3.4 1.8 3.4C1.9 3.5 1.8 3.4 1.8 3.4L1.8 3.4zM2 3.8L2 3.8C2 3.8 2 3.9 2.1 3.9L2.1 3.9 2 3.8C2.1 3.8 2.1 3.8 2 3.8L2 3.8zM1.7 3.2L1.7 3.2C1.7 3.3 1.7 3.3 1.7 3.2L1.7 3.2 1.7 3.2C1.8 3.3 1.7 3.2 1.7 3.2L1.7 3.2zM2.4 4.3L2.4 4.3 2.4 4.3C2.4 4.3 2.5 4.3 2.4 4.3L2.4 4.3 2.4 4.3C2.5 4.3 2.5 4.3 2.4 4.3zM2.3 4.1L2.3 4.1C2.3 4.1 2.3 4.2 2.3 4.1L2.3 4.1 2.3 4.1C2.3 4.2 2.3 4.1 2.3 4.1L2.3 4.1zM2.1 3.9L2.1 3.9 2.1 3.9C2.1 3.9 2.1 4 2.2 4L2.2 4 2.1 3.9C2.2 4 2.2 4 2.1 3.9L2.1 3.9zM1.9 3.6L1.9 3.6 1.9 3.6C1.9 3.6 1.9 3.7 2 3.7L2 3.7 1.9 3.6C2 3.6 1.9 3.6 1.9 3.6L1.9 3.6zM1.5 2.6L1.5 2.6C1.5 2.7 1.5 2.7 1.5 2.6L1.5 2.6 1.5 2.6C1.5 2.7 1.5 2.7 1.5 2.6L1.5 2.6zM1.4 2.4L1.4 2.4C1.4 2.5 1.4 2.5 1.4 2.4L1.4 2.4 1.4 2.4C1.4 2.5 1.4 2.5 1.4 2.4L1.4 2.4zM1.3 2.2L1.3 2.2C1.3 2.3 1.3 2.3 1.3 2.2L1.3 2.2 1.3 2.2C1.4 2.3 1.3 2.3 1.3 2.2L1.3 2.2zM1.5 2.8L1.5 2.8C1.5 2.9 1.5 2.9 1.5 2.8L1.5 2.8 1.5 2.8C1.6 2.9 1.6 2.9 1.5 2.8L1.5 2.8zM1.6 3L1.6 3C1.6 3.1 1.6 3.1 1.6 3L1.6 3 1.6 3C1.7 3.1 1.6 3.1 1.6 3L1.6 3z"/>
		  </g>
		  <path fill="#DADBD9" fill-rule="nonzero" d="M20.5,37.5 L18.9,39.3 L16.9,39.1 C16.9,39.1 16.5,37 16.9,36 L17.2,35.5 L20.7,35.9 L20.5,37.5 Z"/>
		  <path fill="#FFF" fill-rule="nonzero" d="M22.6,34.1 L23.7,34.1 L23.6,35.1 L20.9,39.7 L19.2,36.4 L18.8,36.1 L16.1,39.1 C16.1,39.1 15.6,37.8 15.7,36.5 C15.7,36.4 16.3,35.9 16.3,35.8 C16.4,35.2 15.7,35.1 16.2,34.8 C16.2,34.9 20,37.4 22.6,34.1 Z"/>
		  <path fill="#139AD6" fill-rule="nonzero" d="M18.4,36.5 L16.8,38.9 C16.8,38.9 16.9,40.2 17.5,40.7 C17.5,40.7 18.7,39.4 19.2,38.8 L19.2,36.4 L18.4,36.4 C18.4,36.4 18.4,36.5 18.4,36.5 Z"/>
		  <path fill="#1980AF" fill-rule="nonzero" d="M18.2,36.8 C18.2,36.8 18.6,37.2 19.2,36.9 L19.2,36.6 L18.3,36.6 L18.2,36.8 Z"/>
		  <path fill="#845F3F" fill-rule="nonzero" d="M16.2,36.2 C16.2,36.2 11.2,43.8 12.8,49.9 C12.8,49.9 11.5,49.8 11.2,49.1 C10.9,48.4 11.9,41.4 16.1,36 L16.2,36.2 Z"/>
		  <polygon fill="#C1C0BE" fill-rule="nonzero" points="19.2 36.6 19.4 38.8 19.3 38.9"/>
		  <path fill="url(#einstein_icon-d)" fill-rule="nonzero" d="M30.8,46.6 C30.8,46.7 30.8,46.7 30.8,46.6 C34.6,45.2 35.2,40.4 34.2,39.3 C33.5,38.4 33.5,38.7 31.9,35.2 C30.4,31.7 26.6,32.9 26.6,32.9 L23.5,33.8 C23.5,33.8 22.4,47.9 22.5,48.7 C22.7,49.4 23.6,52.1 25.8,53.1 C25.8,53.1 31.7,52.5 32.8,49 C32.8,49.1 31.6,48.3 30.8,46.6 Z"/>
		  <path fill="#5B4026" fill-rule="nonzero" d="M31.1,46.6 C31.1,46.6 29.5,44.1 30.1,41.8 C30.1,41.8 28.9,43.6 30.7,46.7 L31.1,46.6 Z"/>
		  <g transform="translate(22 34)">
			<path fill="#472A16" fill-rule="nonzero" d="M2.5,0.7 C2.5,0.7 2.5,2.8 3.8,4.6 C3.8,4.6 2.2,5 1.5,5.7 L3.2,6 C3.2,6 2.8,7.4 0.6,12.7 L1.6,0.8 L2.5,0.7 Z"/>
			<path fill="#693521" fill-rule="nonzero" d="M2,0.1 C2,0.1 2,2.2 3.1,4.1 C3.1,4.1 1.6,4.9 1.3,5.6 L3,5.5 C3,5.5 1,10 0.7,12.7 L1.2,0.7 L2,0.1 Z"/>
		  </g>
		  <path fill="#C1C0BE" fill-rule="nonzero" d="M16.8,38.5 C17.1,38.2 17.8,37.3 17.8,37.3 L16.8,38.4 C16.8,38.4 16.8,38.5 16.8,38.5 Z"/>
		  <polygon fill="#0C233B" fill-rule="nonzero" points="23.1 36 20.9 39.7 23.1 35.9"/>
		  <path fill="#1980AF" fill-rule="nonzero" d="M16.9,38.9 L17,38.8 C17,38.8 17.2,40 17.6,40.8 C17.6,40.8 17,40.4 16.9,38.9 Z"/>
		  <path fill="#0C233B" fill-rule="nonzero" d="M16.8,38.5 C16.7,38.6 16.3,39 16.3,39 L16.8,38.5 L16.8,38.5 Z"/>
		  <path fill="#139AD6" fill-rule="nonzero" d="M19.8,36.2 C19.8,36.5 19.4,36.8 18.8,36.8 C18.3,36.8 17.8,36.5 17.8,36.2 C17.8,35.6 18.2,35.6 18.8,35.6 C19.4,35.5 19.8,35.6 19.8,36.2 Z"/>
		  <ellipse cx="21.8" cy="32.7" fill="#5B4026" fill-rule="nonzero" rx="6.1" ry="2.3"/>
		  <path fill="#F2F2F2" fill-rule="nonzero" d="M11.5,29.9 C10.3,28 7.3,30.5 6.4,31.2 C5.6,31.9 6.7,29.2 7.8,28.8 C7.8,28.8 5.4,28.7 5,30.4 C5,30.4 4.6,28.7 6.1,27.4 C6.1,27.4 3.7,29.4 3.1,30.2 C3.2,29.7 3.3,29 3.3,29 L1.5,29.3 C1.5,29.3 1,24.6 4.2,23.8 C7.4,22.9 4,23.4 4,23.4 C4,23.4 3,21.7 0.3,22.4 C0.3,22.4 1.5,12.8 7.3,12.1 C7.3,12.1 6.7,10 4.7,10.4 C4.7,10.4 5,9.3 5.9,9.4 L4.3,8.5 C4.3,8.5 9.3,5.6 13.3,10 C13.3,10 14.7,3.6 14.7,2.7 C14.7,1.8 14.8,1 14.4,0.4 C14.4,0.4 16.3,0.8 16.3,1.6 C16.3,1.6 16.6,0.9 16,0.4 C16,0.4 19.3,1.7 19,3.3 L19.2,2 C19.2,2 20.2,2.5 20.3,3.1 C20.4,3.7 20.6,1.7 20.6,1.7 C20.6,1.7 23.9,3 24.1,7.9 C24.1,7.9 32.7,4.7 35.6,13.4 L33.4,13 C33.4,13 35.1,13.7 35.3,14.8 C35.3,14.8 38,15.5 38,22.1 C38,22.1 37.3,19.4 35.4,19.1 C35.4,19.1 38.3,20.3 38.5,26.5 C38.5,26.5 37.4,25.6 36.5,25.2 C36.5,25.2 38.6,26.6 37.9,30 C37.9,30 37.5,29.1 35.9,28.9 L36.1,29.6 L34.8,29 C34.8,29 30.7,29.3 29.6,30.6 C29.6,30.6 29.4,28.9 28.1,29.8 L11.5,29.9 Z"/>
		  <path fill="#FDD5A6" fill-rule="nonzero" d="M30.8,27 C30.5,30.6 28.1,34.4 23.1,34.2 C22.1,34.2 21,34.4 19.9,34.4 C15.5,34.1 11.2,34.7 10.7,28.4 C10.7,28.3 10.6,28.2 10.6,28.1 C10.3,27.3 10.2,26.4 10.3,25.5 C10.6,21 15.7,17.6 21.4,18 C22.5,18.1 23.5,18.3 24.4,18.6 C28.4,19.9 31.1,23.3 30.8,27 Z"/>
		  <path fill="#FBC18D" fill-rule="nonzero" d="M16.9,18.4 C18.3,18 19.8,17.8 21.4,17.9 C22.5,18 23.5,18.2 24.4,18.5 C28.5,19.9 31.1,23.3 30.8,26.9 C30.7,28.6 29.5,33.9 23.5,34.2 C23.5,34.2 31.6,28.7 24.7,22.7 C21.1,19.7 16.9,18.4 16.9,18.4 Z"/>
		  <path fill="#E8E7E6" fill-rule="nonzero" d="M15.8,26.2 C15.8,26.2 16,24.5 14.9,24.7 C15.4,25 15.2,25.5 15.2,25.5 C15.2,25.5 14.6,23.5 12.1,25.5 C12.1,25.5 12.9,25.2 13.2,25.4 C13.2,25.4 12.1,25.5 12,26.1 C12,26.1 12.5,26 12.6,26.1 C12.6,26.1 11.9,26.7 12.9,27.5 C12.8,27.4 14.5,26 15.8,26.2 Z"/>
		  <ellipse cx="14.921" cy="28.557" fill="#232221" fill-rule="nonzero" rx="1.3" ry="1" transform="rotate(-85.635 14.921 28.557)"/>
		  <ellipse cx="23.015" cy="28.562" fill="#232221" fill-rule="nonzero" rx="1.3" ry="1" transform="rotate(-85.635 23.015 28.562)"/>
		  <path fill="#F2F2F2" fill-rule="nonzero" d="M11.5,29.9 C11.5,29.9 11.3,23.9 12.8,23.9 C12.8,23.9 13.4,25 13.9,25 C14,25 13.9,22 15.6,21.3 C15.6,21.3 21,24.2 21.8,23 C21.6,22.9 19.6,21.8 19.8,20.9 C19.9,20.4 24.3,21 25.7,25.5 C26,25.7 26.6,25 26.9,23.8 C27.4,21.6 28.2,27.7 28.3,27.8 C28.3,27.9 28.8,27.7 29.2,27.2 C29.6,26.7 28.9,30.6 28.8,31.1 C29.8,30.4 30.6,30.1 31,27.1 C31.4,24.3 29.3,20.6 27,19.1 C25.1,17.9 20.8,16.9 15.5,18.5 C9.1,20.4 10,25.9 10.1,26.8 C10.3,28.4 11.5,29.4 11.5,29.9 Z"/>
		  <path fill="#E8E7E6" fill-rule="nonzero" d="M22.7 26.8C22.7 26.8 24.6 26.8 25.5 27.7 25.5 27.7 26.8 27.1 25.4 26.4 25.4 26.4 25.8 26.3 26.1 26.5 26.1 26.5 26.1 25.6 24.7 25.7 24.7 25.7 25.1 25.5 25.6 25.6 25.6 25.6 24.3 24.3 23.4 25.5 23.4 25.5 23.5 25 24 24.8 23.5 24.8 22 24.7 22.2 26.7L22.7 26.8zM11.5 28.9C11.5 28.9 10.1 27.4 7.7 29.3 7.7 29.3 11.1 28.6 11.5 29.9L11.5 28.9zM5.3 26.9C7.8 25.4 9.2 26.2 9.2 26.2 6.5 26.1 6.1 28.2 6.1 28.2 8.9 26.3 11.6 27.4 11.6 27.4L11.7 26.6 11.7 26.6 11.8 25.8C7.7 23.9 5.3 26.9 5.3 26.9zM4.3 22.3C4.3 22.3 9.5 19.6 12.9 23.9 12.8 23.9 9.3 21.1 4.3 22.3zM32.8 28.5C33.7 28.2 34.9 28.1 36.1 29.1 36.2 29.2 36.2 29.8 36.2 29.8L34.9 29.2C34.9 29.2 30.1 30.4 28.9 31.3 28.9 31 30.4 29.3 32.8 28.5zM38.6 26.6C38.6 26.6 37.4 22.6 35.9 22.6 35.9 22.6 38.2 21.6 38.6 26.6zM25.4 9.4C25.4 9.4 32.6 7.4 35.7 13.5 35.7 13.5 32 8.4 25.4 9.4zM38.1 22.3C38.1 22.3 37.9 16.2 35 15.9 35 15.9 34.9 14.4 33.6 13.2 33.6 13.2 35.2 13.8 35.4 15 35.5 14.9 38.6 15.7 38.1 22.3zM24.4 9.8C24.4 9.8 23.1 3.6 20.7 1.9 20.7 1.9 24.2 3.2 24.2 8.1L24.4 9.8zM6.2 8.5C6.2 8.5 12.6 6.5 15.9 15.2 15.9 15.2 13.1 9.5 6.2 8.5z"/>
		  <path fill="#E8E7E6" fill-rule="nonzero" d="M6.2 10.1C6.2 10.1 8.5 9.8 9.2 12.7 9.2 12.7 9.5 8.8 6.2 10.1zM.4 22.3C.4 22.3 3.1 13.8 7.4 12.1 7.4 12.1 1.9 12.2.4 22.3zM15.3 21.2C13.4 20.5 8.9 18.2 9.9 15.4 9.9 15.4 7.9 18.4 12 20.1 12 20.1 9.6 19.4 8.6 20.2 8.6 20.2 12.5 20.8 14.9 22.1 14.9 22.1 15.3 21.6 15.8 21.4 15.7 21.3 15.4 21.3 15.3 21.2zM21.9 23C21.9 23 14.5 19.1 19.2 18.7 19.2 18.7 10.8 17.6 21.9 23zM21.9 23C21.9 23 21.5 24.3 16.5 21.7 16.5 21.7 20.3 23.3 21.9 23zM14.5.5C14.5.5 15.2 1.9 13.3 10 13.4 10.1 18 3 14.5.5zM23.1 15.4C23.1 15.4 25.8 12.7 28.2 13.7 28.2 13.7 26.3 11.9 23.8 13 23.8 13 24.7 12.3 25.5 12.1 25.5 12.1 23.9 12.1 23.4 12.4 23.4 12.4 22.4 9.6 17 10.9 16.9 11 22.7 10.5 23.1 15.4z"/>
		  <path fill="#693521" fill-rule="nonzero" d="M16.3,34.8 L13.8,36.7 L13.7,37.5 L13.1,38 C13.1,38 12.2,42 12.4,42.9 C12.4,42.9 14.3,38.4 16.2,35.9 C16.4,35.5 16.3,34.8 16.3,34.8 Z"/>
		  <path fill="#E8E7E6" fill-rule="nonzero" d="M22.3,10.1 C21,8.8 19.6,7.4 19.4,6.2 C19.3,5.7 19.3,5 19.4,4.1 C19.6,2.3 18.6,1.4 16.2,0.6 C16.2,0.6 18.2,1.6 18.3,5.6 C17.9,5.1 16.9,4.5 16.9,4.5 C18.2,5.4 17.8,6.5 18.2,7.3 C18.6,7.9 22.3,10.1 22.3,10.1 Z"/>
		  <g transform="translate(12 30)">
			<path fill="#E8E7E6" fill-rule="nonzero" d="M5.3,0.9 C4.1,5.55111512e-17 0.5,-0.7 0.9,5.1 C0.9,5.1 1.1,4.2 1.7,4.2 C1.7,4.2 1.5,5.6 2.2,6 C2.2,6 2.6,4.6 3.1,4.9 C3.1,4.9 4.2,6.7 5.1,6.8 C5.1,6.8 4.9,5.5 5.5,5.5 L6.5,7 L7.4,5.4 C7.4,5.4 8.1,6.1 7.6,6.5 C7.6,6.5 8.5,6.6 8.7,5.6 C8.7,5.6 9.8,6 9.6,7 C9.6,7 10.4,6.6 10.4,5.4 L11.3,6.6 L11.6,4.7 C11.6,4.7 13.1,5.3 13.1,5.9 C13.1,5.9 13.5,4.2 12.3,3.1 L13.8,3.4 C13.8,3.4 10.5,-0.5 7.7,1.6 C7.4,1.7 6.8,2.2 5.3,0.9 Z"/>
			<path fill="#DADBD9" fill-rule="nonzero" d="M9.3 2.8C9.3 2.8 13.1 2.9 13.3 5.7 13.2 5.6 11.8 3 9.3 2.8zM5.2 6.8C5.2 6.8 5.1 4.1 6.2 3.3 6.2 3.4 4 4.1 5.2 6.8zM9.7 6.9C9.7 6.9 10.3 5 9.3 4.4 9.3 4.3 11.3 4.9 9.7 6.9zM6.6 7C6.6 7 7.6 4.9 7.3 4 7.3 4 7.5 4.2 7.6 4.6 7.7 5.2 7.6 6 6.6 7z"/>
			<path fill="#DADBD9" fill-rule="nonzero" d="M7.1 3.1C7.1 3.1 8.1 5 7.5 5.4L7.5 5.7C7.5 5.7 7.8 5.8 7.9 6.2 7.9 6.3 8.6 4.7 7.1 3.1zM5.2 6.7C5.2 6.7 3.6 4.2 4.9 3.1 4.8 3.1 2.5 5.1 5.2 6.7M2.2 6C2.2 6 2.8 4 3.7 3.9 3.8 4 1.6 3.5 2.2 6z"/>
			<path fill="#DADBD9" fill-rule="nonzero" d="M.9 5.2C.9 5.2 1.3 4.2 2.5 4.2L3 4C3 4 1.1 3.2.9 5.2zM6.1 2.3C6.1 2.3 2.3-1.2 1.3 3.2 1.3 3.2 2.1 1.5 3.2 1.7 3.2 1.7 2.6 1.9 2.6 2.5 2.6 2.4 3.6 1.2 6.1 2.3zM7.5 2.1C7.5 2.1 10.2.3 12.3 2.3 12.2 2.3 10.8 1.3 7.5 2.1z"/>
		  </g>
		  <path fill="#46423F" fill-rule="nonzero" d="M33.3,40.7 C33.5,41.6 33.9,42.4 34.3,42.8 C34.8,41.3 34.8,40.1 34.2,39.3 C34,39.1 33.7,38.7 33.4,38.2 C33.2,38.7 33.1,39.7 33.3,40.7 Z"/>
		  <path fill="#764F2E" fill-rule="nonzero" d="M28.8,38 C28.3,39 27.1,41.7 26.4,43.4 C25.8,44.9 26.1,46.2 26.9,47.8 C27.1,48.2 28.8,51 28.8,51 C28.8,51 26.8,52 24.3,52 C25,52.8 25.7,53.1 25.7,53.1 C25.7,53.1 27.7,53 30,51.9 C32.3,50.7 32.7,49.1 32.7,49.1 C32.7,49.1 31.2,47.9 30.6,46.5 C30.2,45.7 29.8,44.5 29.8,43.5 C29.8,42.6 30.2,41.9 30.2,41.9 C30.2,41.9 28.9,39.6 28.8,38 Z"/>
		  <path fill="#7E542F" fill-rule="nonzero" d="M34.3,42.8 C33.9,42.4 33.5,41.7 33.3,40.8 C33.3,40.8 33.3,40.8 33.3,40.7 L33.3,40.8 C33.2,41.2 32.8,42.6 32.5,43 C31.7,44.4 30.9,44.8 30.2,44.8 C30.1,44.8 31,46.6 31,46.6 C31,46.6 32.5,45.8 33,45 C33.5,44.2 33.9,43.6 34.1,42.9 L34.3,42.8 Z"/>
		  <path fill="#46423F" fill-rule="nonzero" d="M33.3,40.7 C33.5,41.6 33.9,42.4 34.3,42.8 C34.6,41.7 34.7,40.8 34.5,40.1 C34.3,40.5 33.6,40.6 33.3,40.7 Z"/>
		  <path fill="#F6F7F7" fill-rule="nonzero" d="M24.3,8 C24.3,8 32.9,4.8 35.8,13.5 L33.6,13.1 C33.6,13.1 35.3,13.8 35.5,14.9 C35.5,14.9 38.2,15.6 38.2,22.2 C38.2,22.2 37.5,19.5 35.6,19.2 C35.6,19.2 38.5,20.4 38.7,26.6 C38.7,26.6 37.6,25.7 36.7,25.3 C36.7,25.3 38.8,26.7 38.1,30.1 C38.1,30.1 37.7,29.2 36.1,29 L36.3,29.7 L35,29.1 C35,29.1 30.5,30.2 29,31.2 C29,31.2 29.7,27.1 29.5,27.4 C28.8,28.1 28.5,28 28.5,28 C28.5,28 28.4,27 27.9,24.5 C27.7,23.6 27.6,22 28.5,20.9 C29.1,20.1 33.5,18.8 32.1,15.6 C31.4,14 29.1,15.6 29.5,15.1 C33.1,11.7 28.9,14.3 28.3,13.8 C26.1,11.7 24,13.5 23.4,12.6 C22.6,11.5 25.2,8.8 24.3,8 Z" opacity=".8"/>
		  <path fill="#E8E7E6" fill-rule="nonzero" d="M34.5,26.3 C35,25.7 34.4,22.6 34.4,22.6 C34.4,22.6 34.4,22.8 34,24.8 C33.5,26.8 31.7,26.9 31.4,27 C31.3,27 31.3,27 31.2,27 C30.6,27.1 29.5,27.3 29.5,27.3 L29.5,27.3 C29.6,27.4 29.6,27.7 29.5,28.1 C29.8,27.9 30.7,27.8 31.1,27.7 C31.3,27.7 31.4,27.7 31.4,27.7 C36.1,27.3 38.1,30.2 38.1,30.2 C37.7,26.6 34.5,26.3 34.5,26.3 Z"/>
		  <g transform="translate(22 14)">
			<path fill="#E9E9EB" fill-rule="nonzero" d="M6.9 17.1C6.9 17.2 6.8 17.2 6.9 17.1 6.8 17.2 6.9 17.2 6.9 17.1zM6.8 17.1C6.9 16.8 7 16.2 7.1 15.5 7.1 16.1 6.9 16.8 6.8 17.1z" opacity=".8"/>
			<path fill="#F2F2F2" fill-rule="nonzero" d="M7.2 15.5C7.2 15.4 7.2 15.4 7.2 15.3 7.2 15.4 7.2 15.4 7.2 15.5zM6.8 17.2C6.8 17.2 6.8 17.1 6.8 17.2 6.8 17.1 6.8 17.2 6.8 17.2z"/>
			<g fill="#E8E7E6" fill-rule="nonzero">
			  <path d="M14.1,6.8 C11.2,6 9,6.8 7.6,7.9 C6.5,8.8 5.8,9.9 5.7,10.4 L5.7,10.5 L5.7,10.5 C8,5.5 12.9,6.4 14.1,6.8 Z"/>
			  <path d="M9.8,5.6 C10.2,5 10.6,4.2 10.8,2.9 C11.3,1.88737914e-15 8,0.8 8,0.8 C8,0.8 10.5,0.6 10.2,2.7 C9.9,4.8 6.3,6.8 6.3,6.8 C6.6,5.5 6.6,4.1 5.3,3.4 C5.3,3.4 6.2,5.7 4.7,9.7 C4.3,2.7 0,3 0,3 C3.6,3.9 4.2,10 4.2,10.7 C4.1,11 4,11.2 3.8,11.5 C3.8,11.5 4.4,12.2 5.2,9.4 L5.6,10.5 L5.6,10.5 C7.9,5.5 12.8,6.5 14,6.8 C14.2,6.8 14.3,6.9 14.3,6.9 C13.4,5 10.7,5.4 9.8,5.6 Z"/>
			</g>
		  </g>
		  <path fill="#E9E9EB" fill-rule="nonzero" d="M36.6,25.3 C37.6,25.6 38.6,26.6 38.6,26.6 C38.6,25.5 38.4,24.5 38.2,23.6 C38,22.6 37.7,21.8 37.3,21.2 C36.9,21 36.4,20.9 36,20.8 C34.8,20.5 29.9,19.5 27.6,24.5 L27.6,24.5 C27.9,25.8 28.2,27.9 28.2,27.9 C28.2,28 28.7,27.8 29.1,27.3 C29.1,27.3 29.1,27.3 29.2,27.3 L29.2,27.3 C29.3,27.4 29.2,28.4 29.1,29.3 C29.1,29.4 29.1,29.4 29.1,29.5 C29,30.2 28.8,30.8 28.8,31.1 L28.8,31.2 C28.8,31.2 28.9,31.2 28.9,31.1 C30.3,30.2 34.8,29.1 34.8,29.1 L36.1,29.7 C36.1,29.7 36.1,29.2 36.1,29.1 C36.9,29.2 37.4,29.5 37.6,29.8 C37.8,30.1 37.9,30.2 37.9,30.2 C38.7,26.7 36.6,25.3 36.6,25.3 Z" opacity=".65"/>
		  <path fill="#DCAD84" fill-rule="nonzero" d="M7.4,34.9 C7.2,34.6 7.5,35.7 8.1,36 C8.7,36.3 9.4,36 9.4,36 C9.4,36 8,36 7.4,34.9 Z"/>
		  <path fill="#5B4026" fill-rule="nonzero" d="M30.2,41.8 C30.2,41.8 28.6,40.1 28.8,38 C28.8,38.1 29,39.9 30.2,41.8 Z"/>
		  <path fill="#693521" fill-rule="nonzero" d="M24.7,48 C24.7,48 27.7,47.2 28.9,46.5 C28.9,46.5 29.2,47.2 29.3,47.4 C28.5,48 25.8,48.9 25,49 L24.7,48 Z"/>
		</g>
	  </g>
	</g>
  </svg>